# xmcd
#
# Track frame offsets:
# 150
# 16477
# 34132
# 50099
# 68022
# 83749
# 96874
# 114224
# 132967
# 147549
# 163237
# 181542
# 197057
# 214128
# 243211
#
# Disc length: 3246 seconds
#
#
# Revision: 0
# Processed by: cddbd v1.5.2PL0 Copyright (c) Steve Scherf et al.
# Submitted via: FreeRIP 2.951 
#
DISCID=ce0cac0f
DTITLE=Kristina Bach - Liebe, was Sonst!
DYEAR=2002
DGENRE=
TTITLE0=Tief in mir hab ich es nie bereut
TTITLE1=Fliegst du mit mir zu den Sternen
TTITLE2=Wahre Lügen
TTITLE3=Unsere Sterne verglühen
TTITLE4=Tauch in mein Gefühl
TTITLE5=Schläft dein Herz bei ihr
TTITLE6=I love you (La da di dam dam da)
TTITLE7=Auf dünnem Eis getanzt
TTITLE8=Mach das noch einmal
TTITLE9=Bestell ihm schöne Grüße
TTITLE10=Wer, wenn nicht wir
TTITLE11=Irgendwann war es doch Liebe
TTITLE12=Sei endlich still und küss mich
TTITLE13=Bleib, wenn die Nacht zu Ende geht
TTITLE14=nix
EXTD=
EXTT0=
EXTT1=
EXTT2=
EXTT3=
EXTT4=
EXTT5=
EXTT6=
EXTT7=
EXTT8=
EXTT9=
EXTT10=
EXTT11=
EXTT12=
EXTT13=
EXTT14=
PLAYORDER=
